{
  "accessors": [
    {
      "bufferView": 2,
      "componentType": 5126,
      "count": 6418,
      "max": [
        607.49462890625,
        657.0194702148438,
        2371.318603515625
      ],
      "min": [
        374.34930419921875,
        556.0958251953125,
        2115.436767578125
      ],
      "type": "VEC3"
    },
    {
      "bufferView": 2,
      "byteOffset": 77016,
      "componentType": 5126,
      "count": 6418,
      "max": [
        0.9999908208847046,
        0.9999996423721313,
        1.0
      ],
      "min": [
        -0.9998448491096497,
        -0.9999997615814209,
        -1.0
      ],
      "type": "VEC3"
    },
    {
      "bufferView": 1,
      "componentType": 5126,
      "count": 6418,
      "max": [
        0.9556000232696533,
        0.9994999766349792
      ],
      "min": [
        0.0005000000237487257,
        0.0005000000237487257
      ],
      "type": "VEC2"
    },
    {
      "bufferView": 0,
      "componentType": 5125,
      "count": 35232,
      "type": "SCALAR"
    },
    {
      "bufferView": 2,
      "byteOffset": 154032,
      "componentType": 5126,
      "count": 1704,
      "max": [
        561.42919921875,
        653.5831298828125,
        2469.83837890625
      ],
      "min": [
        424.1448059082031,
        558.436279296875,
        2354.838623046875
      ],
      "type": "VEC3"
    },
    {
      "bufferView": 2,
      "byteOffset": 174480,
      "componentType": 5126,
      "count": 1704,
      "max": [
        0.9832507371902466,
        0.999560534954071,
        0.9855588674545288
      ],
      "min": [
        -0.983305037021637,
        -0.9998247027397156,
        -0.9853459596633911
      ],
      "type": "VEC3"
    },
    {
      "bufferView": 1,
      "byteOffset": 51344,
      "componentType": 5126,
      "count": 1704,
      "max": [
        0.0,
        0.0
      ],
      "min": [
        0.0,
        0.0
      ],
      "type": "VEC2"
    },
    {
      "bufferView": 0,
      "byteOffset": 140928,
      "componentType": 5125,
      "count": 10200,
      "type": "SCALAR"
    }
  ],
  "asset": {
    "extras": {
      "author": "nidhinobinu1 (https://sketchfab.com/nidhinobinu1)",
      "license": "CC-BY-4.0 (http://creativecommons.org/licenses/by/4.0/)",
      "source": "https://sketchfab.com/3d-models/covers-wraps-paper-bag-demo-d9fe4b53538c481084f0f6e78b5f59e4",
      "title": "Covers & Wraps Paper Bag DEMO"
    },
    "generator": "Sketchfab-12.68.0",
    "version": "2.0"
  },
  "bufferViews": [
    {
      "buffer": 0,
      "byteLength": 181728,
      "name": "floatBufferViews",
      "target": 34963
    },
    {
      "buffer": 0,
      "byteLength": 64976,
      "byteOffset": 181728,
      "byteStride": 8,
      "name": "floatBufferViews",
      "target": 34962
    },
    {
      "buffer": 0,
      "byteLength": 194928,
      "byteOffset": 246704,
      "byteStride": 12,
      "name": "floatBufferViews",
      "target": 34962
    }
  ],
  "buffers": [
    {
      "byteLength": 441632,
      "uri": "scene.bin"
    }
  ],
  "images": [
    {
      "uri": "textures/wire_141007058_baseColor.jpeg"
    }
  ],
  "materials": [
    {
      "doubleSided": true,
      "name": "wire_141007058",
      "pbrMetallicRoughness": {
        "baseColorTexture": {
          "index": 0
        },
        "metallicFactor": 0.0,
        "roughnessFactor": 0.9167555019
      }
    },
    {
      "doubleSided": true,
      "name": "wire_214228153",
      "pbrMetallicRoughness": {
        "baseColorTexture": {
          "index": 0
        },
        "metallicFactor": 0.0,
        "roughnessFactor": 0.21538339225137526
      }
    }
  ],
  "meshes": [
    {
      "name": "Object_0",
      "primitives": [
        {
          "attributes": {
            "NORMAL": 1,
            "POSITION": 0,
            "TEXCOORD_0": 2
          },
          "indices": 3,
          "material": 1,
          "mode": 4
        }
      ]
    },
    {
      "name": "Object_1",
      "primitives": [
        {
          "attributes": {
            "NORMAL": 5,
            "POSITION": 4,
            "TEXCOORD_0": 6
          },
          "indices": 7,
          "material": 0,
          "mode": 4
        }
      ]
    }
  ],
  "nodes": [
    {
      "children": [
        1
      ],
      "matrix": [
        0.001550387591123581,
        0.0,
        0.0,
        0.0,
        0.0,
        3.442552001517065e-19,
        -0.001550387591123581,
        0.0,
        0.0,
        0.001550387591123581,
        3.442552001517065e-19,
        0.0,
        0.0,
        0.0,
        0.0,
        1.0
      ],
      "name": "Sketchfab_model"
    },
    {
      "children": [
        2,
        3
      ],
      "name": "BAG_02.obj.cleaner.materialmerger.gles"
    },
    {
      "mesh": 0,
      "name": "Object_2"
    },
    {
      "mesh": 1,
      "name": "Object_3"
    }
  ],
  "samplers": [
    {
      "magFilter": 9729,
      "minFilter": 9987,
      "wrapS": 10497,
      "wrapT": 10497
    }
  ],
  "scene": 0,
  "scenes": [
    {
      "name": "Sketchfab_Scene",
      "nodes": [
        0
      ]
    }
  ],
  "textures": [
    {
      "sampler": 0,
      "source": 0
    }
  ]
}
