{
  "accessors": [
    {
      "bufferView": 2,
      "componentType": 5126,
      "count": 722,
      "max": [
        24.468660354614258,
        16.397748947143555,
        12.753131866455078
      ],
      "min": [
        -23.616046905517578,
        -27.83351707458496,
        -9.391169548034668
      ],
      "type": "VEC3"
    },
    {
      "bufferView": 2,
      "byteOffset": 8664,
      "componentType": 5126,
      "count": 722,
      "max": [
        0.999935507774353,
        0.9996728301048279,
        0.9998284578323364
      ],
      "min": [
        -0.9988479018211365,
        -0.9741273522377014,
        -0.9998435974121094
      ],
      "type": "VEC3"
    },
    {
      "bufferView": 3,
      "componentType": 5126,
      "count": 722,
      "max": [
        0.9999997615814209,
        0.9994246959686279,
        0.9770041704177856,
        1.0
      ],
      "min": [
        -0.9993358850479126,
        -0.9576564431190491,
        -0.9995258450508118,
        -1.0
      ],
      "type": "VEC4"
    },
    {
      "bufferView": 1,
      "componentType": 5126,
      "count": 722,
      "max": [
        0.9840866923332214,
        0.9902239441871643
      ],
      "min": [
        0.018208827823400497,
        0.3082200288772583
      ],
      "type": "VEC2"
    },
    {
      "bufferView": 0,
      "componentType": 5125,
      "count": 3108,
      "type": "SCALAR"
    }
  ],
  "asset": {
    "extras": {
      "author": "DanlyVostok (https://sketchfab.com/1799danly)",
      "license": "CC-BY-4.0 (http://creativecommons.org/licenses/by/4.0/)",
      "source": "https://sketchfab.com/3d-models/low-poly-game-ready-simple-cap-88df93aa1149433888937a72748eeda0",
      "title": "Low Poly Game ready simple cap"
    },
    "generator": "Sketchfab-16.56.0",
    "version": "2.0"
  },
  "bufferViews": [
    {
      "buffer": 0,
      "byteLength": 12432,
      "name": "floatBufferViews",
      "target": 34963
    },
    {
      "buffer": 0,
      "byteLength": 5776,
      "byteOffset": 12432,
      "byteStride": 8,
      "name": "floatBufferViews",
      "target": 34962
    },
    {
      "buffer": 0,
      "byteLength": 17328,
      "byteOffset": 18208,
      "byteStride": 12,
      "name": "floatBufferViews",
      "target": 34962
    },
    {
      "buffer": 0,
      "byteLength": 11552,
      "byteOffset": 35536,
      "byteStride": 16,
      "name": "floatBufferViews",
      "target": 34962
    }
  ],
  "buffers": [
    {
      "byteLength": 47088,
      "uri": "scene.bin"
    }
  ],
  "extensionsRequired": [
    "KHR_materials_pbrSpecularGlossiness"
  ],
  "extensionsUsed": [
    "KHR_materials_pbrSpecularGlossiness"
  ],
  "images": [
    {
      "uri": "textures/Scene_-_Root_diffuse.png"
    },
    {
      "uri": "textures/Scene_-_Root_specularGlossiness.png"
    },
    {
      "uri": "textures/Scene_-_Root_normal.png"
    },
    {
      "uri": "textures/Scene_-_Root_occlusion.png"
    }
  ],
  "materials": [
    {
      "doubleSided": true,
      "extensions": {
        "KHR_materials_pbrSpecularGlossiness": {
          "diffuseFactor": [
            1.0,
            1.0,
            1.0,
            1.0
          ],
          "diffuseTexture": {
            "index": 0
          },
          "glossinessFactor": 1.0,
          "specularFactor": [
            1.0,
            1.0,
            1.0
          ],
          "specularGlossinessTexture": {
            "index": 1
          }
        }
      },
      "name": "Scene_-_Root",
      "normalTexture": {
        "index": 2
      },
      "occlusionTexture": {
        "index": 3
      }
    }
  ],
  "meshes": [
    {
      "name": "Box001__0",
      "primitives": [
        {
          "attributes": {
            "NORMAL": 1,
            "POSITION": 0,
            "TANGENT": 2,
            "TEXCOORD_0": 3
          },
          "indices": 4,
          "material": 0,
          "mode": 4
        }
      ]
    }
  ],
  "nodes": [
    {
      "children": [
        1
      ],
      "matrix": [
        0.4852679669857025,
        0.0,
        0.0,
        0.0,
        0.0,
        1.0775113401211345e-16,
        -0.4852679669857025,
        0.0,
        0.0,
        0.4852679669857025,
        1.0775113401211345e-16,
        0.0,
        0.0,
        0.0,
        0.0,
        1.0
      ],
      "name": "Sketchfab_model"
    },
    {
      "children": [
        2
      ],
      "matrix": [
        0.02539999969303608,
        0.0,
        0.0,
        0.0,
        0.0,
        0.0,
        0.02539999969303608,
        0.0,
        0.0,
        -0.02539999969303608,
        0.0,
        0.0,
        0.0,
        0.0,
        0.0,
        1.0
      ],
      "name": "Cap LOW POLY.fbx"
    },
    {
      "children": [
        3
      ],
      "name": "RootNode"
    },
    {
      "children": [
        4
      ],
      "matrix": [
        0.638264000415802,
        0.0,
        0.0,
        0.0,
        0.0,
        2.2848944039267286e-16,
        -1.0290249586105347,
        0.0,
        0.0,
        1.0290249586105347,
        2.2848944039267286e-16,
        0.0,
        -0.0868079662322998,
        0.0,
        1.5505924224853516,
        1.0
      ],
      "name": "Box001"
    },
    {
      "mesh": 0,
      "name": "Box001__0"
    }
  ],
  "samplers": [
    {
      "magFilter": 9729,
      "minFilter": 9987,
      "wrapS": 10497,
      "wrapT": 10497
    }
  ],
  "scene": 0,
  "scenes": [
    {
      "name": "Sketchfab_Scene",
      "nodes": [
        0
      ]
    }
  ],
  "textures": [
    {
      "sampler": 0,
      "source": 0
    },
    {
      "sampler": 0,
      "source": 1
    },
    {
      "sampler": 0,
      "source": 2
    },
    {
      "sampler": 0,
      "source": 3
    }
  ]
}
