{
  "accessors": [
    {
      "bufferView": 2,
      "componentType": 5126,
      "count": 597,
      "max": [
        35.33399963378906,
        23.149999618530273,
        54.916221618652344
      ],
      "min": [
        -35.33399963378906,
        -214.6309356689453,
        -35.33399963378906
      ],
      "type": "VEC3"
    },
    {
      "bufferView": 2,
      "byteOffset": 7164,
      "componentType": 5126,
      "count": 597,
      "max": [
        1.0,
        1.0,
        1.0
      ],
      "min": [
        -1.0,
        -1.0,
        -1.0
      ],
      "type": "VEC3"
    },
    {
      "bufferView": 1,
      "componentType": 5126,
      "count": 597,
      "max": [
        1.0,
        1.0
      ],
      "min": [
        0.0,
        0.0
      ],
      "type": "VEC2"
    },
    {
      "bufferView": 0,
      "componentType": 5125,
      "count": 2460,
      "type": "SCALAR"
    },
    {
      "bufferView": 2,
      "byteOffset": 14328,
      "componentType": 5126,
      "count": 64,
      "max": [
        3.1595840454101563,
        3.6668689250946045,
        3.0049431324005127
      ],
      "min": [
        -3.1595840454101563,
        -3.6668689250946045,
        -3.0049431324005127
      ],
      "type": "VEC3"
    },
    {
      "bufferView": 2,
      "byteOffset": 15096,
      "componentType": 5126,
      "count": 64,
      "max": [
        0.9573039412498474,
        1.0,
        0.9104501008987427
      ],
      "min": [
        -0.9573038816452026,
        -1.0,
        -0.9104501008987427
      ],
      "type": "VEC3"
    },
    {
      "bufferView": 1,
      "byteOffset": 4776,
      "componentType": 5126,
      "count": 64,
      "max": [
        1.0,
        1.0
      ],
      "min": [
        0.0,
        0.0
      ],
      "type": "VEC2"
    },
    {
      "bufferView": 0,
      "byteOffset": 9840,
      "componentType": 5125,
      "count": 240,
      "type": "SCALAR"
    },
    {
      "bufferView": 2,
      "byteOffset": 15864,
      "componentType": 5126,
      "count": 945,
      "max": [
        33.923545837402344,
        299.8139343261719,
        33.408172607421875
      ],
      "min": [
        -33.923545837402344,
        -595.43505859375,
        -33.408172607421875
      ],
      "type": "VEC3"
    },
    {
      "bufferView": 2,
      "byteOffset": 27204,
      "componentType": 5126,
      "count": 945,
      "max": [
        1.0,
        1.0,
        0.9848078489303589
      ],
      "min": [
        -1.0,
        -1.0,
        -0.9848078489303589
      ],
      "type": "VEC3"
    },
    {
      "bufferView": 1,
      "byteOffset": 5288,
      "componentType": 5126,
      "count": 945,
      "max": [
        1.0,
        1.0
      ],
      "min": [
        0.0,
        0.0
      ],
      "type": "VEC2"
    },
    {
      "bufferView": 0,
      "byteOffset": 10800,
      "componentType": 5125,
      "count": 4536,
      "type": "SCALAR"
    }
  ],
  "asset": {
    "extras": {
      "author": "richardyeungx (https://sketchfab.com/richardyeungx)",
      "license": "CC-BY-4.0 (http://creativecommons.org/licenses/by/4.0/)",
      "source": "https://sketchfab.com/3d-models/pen-c210364d40554146b5d619d64c29c251",
      "title": "Pen"
    },
    "generator": "Sketchfab-12.64.0",
    "version": "2.0"
  },
  "bufferViews": [
    {
      "buffer": 0,
      "byteLength": 28944,
      "name": "floatBufferViews",
      "target": 34963
    },
    {
      "buffer": 0,
      "byteLength": 12848,
      "byteOffset": 28944,
      "byteStride": 8,
      "name": "floatBufferViews",
      "target": 34962
    },
    {
      "buffer": 0,
      "byteLength": 38544,
      "byteOffset": 41792,
      "byteStride": 12,
      "name": "floatBufferViews",
      "target": 34962
    }
  ],
  "buffers": [
    {
      "byteLength": 80336,
      "uri": "scene.bin"
    }
  ],
  "materials": [
    {
      "doubleSided": true,
      "name": "Scene_-_Root",
      "pbrMetallicRoughness": {
        "metallicFactor": 0.0,
        "roughnessFactor": 0.6
      }
    }
  ],
  "meshes": [
    {
      "name": "Pen_Clip__0",
      "primitives": [
        {
          "attributes": {
            "NORMAL": 1,
            "POSITION": 0,
            "TEXCOORD_0": 2
          },
          "indices": 3,
          "material": 0,
          "mode": 4
        }
      ]
    },
    {
      "name": "Ballpoint__0",
      "primitives": [
        {
          "attributes": {
            "NORMAL": 5,
            "POSITION": 4,
            "TEXCOORD_0": 6
          },
          "indices": 7,
          "material": 0,
          "mode": 4
        }
      ]
    },
    {
      "name": "Pen_Body__0",
      "primitives": [
        {
          "attributes": {
            "NORMAL": 9,
            "POSITION": 8,
            "TEXCOORD_0": 10
          },
          "indices": 11,
          "material": 0,
          "mode": 4
        }
      ]
    }
  ],
  "nodes": [
    {
      "children": [
        1
      ],
      "matrix": [
        -0.13642573356628418,
        -0.11260387301444985,
        -0.9842298626899719,
        0.0,
        -0.781902015209198,
        -0.5978124737739563,
        0.17677532136440263,
        0.0,
        -0.608290433883667,
        0.7936879992485046,
        -0.006488194689154449,
        0.0,
        2.6043989658355713,
        0.8507591485977173,
        0.1438148021698,
        1.0
      ],
      "name": "Sketchfab_model"
    },
    {
      "children": [
        2
      ],
      "matrix": [
        0.009999999776482582,
        0.0,
        0.0,
        0.0,
        0.0,
        0.0,
        0.009999999776482582,
        0.0,
        0.0,
        -0.009999999776482582,
        0.0,
        0.0,
        0.0,
        0.0,
        0.0,
        1.0
      ],
      "name": "cef88fe1acef489bbfaa4534fdfdab29.fbx"
    },
    {
      "children": [
        3,
        5
      ],
      "name": "RootNode"
    },
    {
      "children": [
        4
      ],
      "matrix": [
        -0.9122859193428228,
        -0.21147955172333235,
        -0.3507289559926854,
        0.0,
        -0.1973944004785219,
        0.9773824221884178,
        -0.07588841450990083,
        0.0,
        0.3588451644212941,
        -4.85722573273506e-17,
        -0.9333971009015694,
        0.0,
        1558.24462890625,
        817.856201171875,
        534.2955932617188,
        1.0
      ],
      "name": "CINEMA_4D_Editor"
    },
    {
      "name": "Object_4"
    },
    {
      "children": [
        6,
        8,
        10
      ],
      "matrix": [
        1.0,
        0.0,
        0.0,
        0.0,
        0.0,
        1.0,
        0.0,
        0.0,
        0.0,
        0.0,
        1.0,
        0.0,
        0.0,
        454.21075439453125,
        0.0,
        1.0
      ],
      "name": "Pen"
    },
    {
      "children": [
        7
      ],
      "matrix": [
        1.0,
        0.0,
        0.0,
        0.0,
        0.0,
        1.0,
        0.0,
        0.0,
        0.0,
        0.0,
        1.0,
        0.0,
        0.0,
        323.0980224609375,
        0.0,
        1.0
      ],
      "name": "Pen_Clip"
    },
    {
      "mesh": 0,
      "name": "Pen_Clip__0"
    },
    {
      "children": [
        9
      ],
      "matrix": [
        1.0,
        0.0,
        0.0,
        0.0,
        0.0,
        1.0,
        0.0,
        0.0,
        0.0,
        0.0,
        1.0,
        0.0,
        0.0,
        -458.8872985839844,
        0.0,
        1.0
      ],
      "name": "Ballpoint"
    },
    {
      "mesh": 1,
      "name": "Ballpoint__0"
    },
    {
      "children": [
        11
      ],
      "matrix": [
        1.0,
        0.0,
        0.0,
        0.0,
        0.0,
        1.0,
        0.0,
        0.0,
        0.0,
        0.0,
        1.0,
        0.0,
        0.0,
        135.7892608642578,
        0.0,
        1.0
      ],
      "name": "Pen_Body"
    },
    {
      "mesh": 2,
      "name": "Pen_Body__0"
    }
  ],
  "scene": 0,
  "scenes": [
    {
      "name": "Sketchfab_Scene",
      "nodes": [
        0
      ]
    }
  ]
}
